<?xml version="1.0" standalone="no"?>
<!DOCTYPE svg PUBLIC "-//W3C//DTD SVG 20010904//EN"
 "http://www.w3.org/TR/2001/REC-SVG-20010904/DTD/svg10.dtd">
<svg version="1.0" xmlns="http://www.w3.org/2000/svg"
 width="701.000000pt" height="670.000000pt" viewBox="0 0 701.000000 670.000000"
 preserveAspectRatio="xMidYMid meet">

<g transform="translate(0.000000,670.000000) scale(0.100000,-0.100000)"
fill="#000000" stroke="none">
<path d="M2154 5988 c-36 -27 -766 -661 -807 -701 l-29 -27 4 -273 c5 -305 10
-331 78 -447 159 -268 489 -366 775 -230 71 34 181 130 222 195 15 25 30 45
33 45 3 0 14 -15 25 -32 30 -51 112 -134 173 -175 31 -20 92 -49 136 -65 160
-55 361 -31 502 60 68 45 154 130 181 179 9 18 20 33 23 33 3 0 13 -13 23 -29
55 -93 172 -188 292 -236 85 -34 241 -46 334 -25 134 30 261 112 347 226 49
64 49 65 64 42 75 -113 164 -187 287 -238 66 -28 94 -34 182 -38 62 -3 125 0
160 7 77 17 206 81 264 131 100 87 177 231 197 366 13 91 13 480 0 504 -11 20
-808 716 -844 737 -16 9 -317 12 -1307 13 l-1285 0 -30 -22z m2856 -374 c162
-140 308 -268 325 -285 l30 -29 -1895 0 c-1701 0 -1893 2 -1879 15 8 9 155
137 325 285 l309 269 1245 0 1246 1 294 -256z m-2650 -642 c0 -261 -24 -343
-134 -454 -155 -156 -408 -174 -588 -42 -61 45 -100 96 -141 181 l-32 68 -3
218 -4 217 451 0 451 0 0 -188z m1038 -29 l-3 -218 -32 -68 c-18 -38 -47 -86
-63 -107 -63 -80 -176 -142 -290 -161 -166 -27 -370 76 -453 229 -47 86 -57
149 -57 354 l0 188 451 0 451 0 -4 -217z m1040 -5 l-3 -223 -34 -70 c-140
-286 -520 -346 -734 -116 -105 113 -127 192 -127 448 l0 183 451 0 450 0 -3
-222z m1052 50 c0 -265 -28 -358 -141 -470 -171 -172 -439 -176 -621 -9 -68
62 -123 165 -138 256 -5 33 -10 135 -10 228 l0 167 455 0 455 0 0 -172z"/>
<path d="M1621 4074 c-21 -27 -21 -29 -21 -1120 0 -770 3 -1109 11 -1146 24
-110 86 -191 187 -240 l67 -33 1064 -3 c831 -2 1067 0 1078 10 39 32 31 96
-13 117 -18 8 -307 11 -1057 11 -982 0 -1034 1 -1073 19 -48 22 -101 82 -114
131 -6 22 -10 453 -10 1138 0 1089 0 1102 -20 1122 -29 29 -74 26 -99 -6z"/>
<path d="M1940 4080 c-19 -19 -20 -33 -20 -481 l0 -461 26 -49 c15 -26 45 -61
67 -76 l40 -28 761 -3 761 -3 18 22 c9 12 17 31 17 44 0 13 -8 32 -17 44 -18
21 -19 21 -756 24 l-739 2 -19 24 c-18 22 -19 45 -19 466 0 432 0 443 -21 469
-25 32 -70 35 -99 6z"/>
<path d="M5224 4079 c-17 -19 -19 -41 -22 -202 -4 -197 -1 -218 28 -247 26
-26 60 -25 88 0 21 20 22 28 22 230 0 205 0 209 -22 224 -31 22 -71 20 -94 -5z"/>
<path d="M4505 3552 c-44 -10 -105 -27 -135 -37 -225 -74 -443 -260 -559 -477
-130 -241 -159 -508 -85 -767 131 -455 557 -761 1029 -738 372 18 704 234 865
562 59 121 74 166 94 281 46 260 -10 522 -159 749 -54 81 -195 221 -280 276
-89 58 -208 112 -310 139 -114 31 -348 37 -460 12z m443 -151 c262 -76 478
-272 581 -528 48 -117 56 -166 55 -333 0 -148 -2 -160 -33 -250 -103 -302
-319 -510 -616 -592 -115 -31 -335 -31 -450 0 -247 68 -459 242 -574 469 -32
64 -70 206 -82 307 -12 105 5 248 42 357 101 294 349 516 654 583 101 22 325
15 423 -13z"/>
<path d="M4662 3267 c-16 -17 -22 -37 -24 -87 l-3 -65 -90 -5 c-99 -6 -115
-12 -162 -62 -53 -55 -63 -92 -63 -231 0 -151 14 -199 77 -262 64 -65 108 -75
321 -75 l174 0 28 -28 c34 -34 44 -86 39 -201 -6 -124 1 -121 -249 -121 -203
0 -207 0 -228 23 -17 18 -22 36 -22 81 0 47 -4 61 -25 81 -31 32 -59 32 -90 0
-22 -21 -25 -33 -25 -92 1 -152 86 -233 245 -233 l75 0 0 -65 c0 -57 3 -69 25
-90 31 -32 59 -32 90 0 21 21 25 33 25 89 l0 64 89 4 c80 3 94 6 133 33 25 18
52 49 66 75 20 40 22 59 22 190 0 131 -2 150 -24 195 -25 54 -76 100 -135 121
-24 9 -95 13 -209 14 -249 0 -262 10 -262 198 0 164 -11 156 238 160 199 3
200 3 228 -21 24 -21 28 -33 32 -90 5 -73 23 -99 67 -99 50 0 65 26 65 116 0
94 -20 139 -83 190 -35 28 -47 31 -130 36 l-92 5 -5 66 c-6 76 -27 109 -70
109 -15 0 -36 -10 -48 -23z"/>
<path d="M576 1204 c-9 -23 -7 -207 2 -222 7 -9 39 -12 128 -10 l119 3 3 48 3
47 2694 0 2694 0 3 -47 3 -48 119 -3 c89 -2 121 1 128 10 10 17 10 209 0 226
-7 9 -39 12 -128 10 l-119 -3 -3 -47 -3 -48 -2694 0 -2694 0 -3 48 -3 47 -121
3 c-104 2 -123 0 -128 -14z m204 -109 l0 -85 -80 0 -80 0 0 85 0 85 80 0 80 0
0 -85z m5650 0 l0 -85 -80 0 -80 0 0 85 0 85 80 0 80 0 0 -85z"/>
</g>
</svg>
